PathFileType	4	(X/Y/Z)	 3.0Hz3min.trc
DataRate	CameraRate	NumFrames	NumMarkers	Units	OrigDataRate	OrigDataStartFrame	OrigNumFrames
200	200	8	39	m	200	624	998
Frame#	Time	C7			LSH			RSH			MAN			RASI			LASI			HIPR			HIPL			RPSI			LPSI			COX			RTHI1			RTHI2			RTHI3			RTHI4			RLKN			RMKN			RSHA1			RSHA2			RSHA3			RSHA4			RHEEL			RMET5			RMET1			RTOE			LTHI1			LTHI2			LTHI3			LTHI4			LLKN			LMKN			LSHA1			LSHA2			LSHA3			LSHA4			LHEEL			LMET5			LMET1			LTOE			
		X1	Y1	Z1	X2	Y2	Z2	X3	Y3	Z3	X4	Y4	Z4	X5	Y5	Z5	X6	Y6	Z6	X7	Y7	Z7	X8	Y8	Z8	X9	Y9	Z9	X10	Y10	Z10	X11	Y11	Z11	X12	Y12	Z12	X13	Y13	Z13	X14	Y14	Z14	X15	Y15	Z15	X16	Y16	Z16	X17	Y17	Z17	X18	Y18	Z18	X19	Y19	Z19	X20	Y20	Z20	X21	Y21	Z21	X22	Y22	Z22	X23	Y23	Z23	X24	Y24	Z24	X25	Y25	Z25	X26	Y26	Z26	X27	Y27	Z27	X28	Y28	Z28	X29	Y29	Z29	X30	Y30	Z30	X31	Y31	Z31	X32	Y32	Z32	X33	Y33	Z33	X34	Y34	Z34	X35	Y35	Z35	X36	Y36	Z36	X37	Y37	Z37	X38	Y38	Z38	X39	Y39	Z39	
624	3.1200	-0.261871	1.552208	-0.501619	-0.217055	1.547028	-0.680679	-0.211512	1.541187	-0.319920	-0.113343	1.497438	-0.512242	-0.132050	1.029628	-0.395103	-0.144314	1.034891	-0.632465	-0.204536	1.106994	-0.343953	-0.216122	1.104800	-0.672926	-0.307253	1.102352	-0.459226	-0.312695	1.107847	-0.548108	-0.308472	1.108235	-0.500199	-0.222442	0.843736	-0.319643	-0.213441	0.784741	-0.317439	-0.149029	0.792427	-0.319995	-0.150966	0.854190	-0.324362	-0.209679	0.517571	-0.349968	-0.199364	0.507455	-0.470249	-0.286088	0.401556	-0.324737	-0.298311	0.361715	-0.332986	-0.239114	0.350529	-0.336013	-0.230118	0.389346	-0.330208	-0.370816	0.133675	-0.413012	-0.227687	0.056068	-0.345005	-0.171776	0.061844	-0.407955	-0.144373	0.051119	-0.400523	-0.241328	0.852834	-0.705455	-0.224398	0.794063	-0.714070	-0.161147	0.806643	-0.717155	-0.169063	0.865926	-0.709388	-0.227364	0.528190	-0.690064	-0.191226	0.521416	-0.571709	-0.302962	0.397994	-0.701154	-0.314562	0.359958	-0.693536	-0.253904	0.346475	-0.705231	-0.250719	0.390074	-0.711968	-0.374297	0.128834	-0.622305	-0.230483	0.060566	-0.706779	-0.171388	0.072439	-0.651397	-0.147296	0.058677	-0.661596	
625	3.1250	-0.261530	1.550935	-0.501400	-0.216749	1.545238	-0.680867	-0.210853	1.539387	-0.319420	-0.113112	1.495795	-0.512122	-0.132135	1.028299	-0.395137	-0.144284	1.033630	-0.632450	-0.205057	1.105311	-0.343913	-0.216396	1.103201	-0.672995	-0.307366	1.100707	-0.459404	-0.312651	1.106201	-0.548303	-0.308550	1.106568	-0.500385	-0.221953	0.842570	-0.319581	-0.212872	0.783580	-0.317390	-0.148471	0.791342	-0.320115	-0.150504	0.853108	-0.324500	-0.209231	0.516544	-0.349907	-0.198959	0.506470	-0.470262	-0.285474	0.400418	-0.324963	-0.297740	0.360589	-0.333077	-0.238519	0.349472	-0.335909	-0.229606	0.388258	-0.330163	-0.369622	0.132136	-0.412925	-0.225934	0.054801	-0.345610	-0.170122	0.061196	-0.408609	-0.142592	0.050433	-0.401450	-0.240864	0.851516	-0.705519	-0.223965	0.792708	-0.713948	-0.160698	0.805209	-0.716833	-0.168582	0.864520	-0.709221	-0.226973	0.526823	-0.689766	-0.192216	0.520266	-0.570988	-0.301744	0.396257	-0.701648	-0.313321	0.358186	-0.694099	-0.252464	0.344892	-0.704948	-0.249338	0.388486	-0.711730	-0.373254	0.127336	-0.623030	-0.228285	0.058025	-0.704826	-0.169884	0.070736	-0.648865	-0.145686	0.056943	-0.658543	
626	3.1300	-0.261184	1.549413	-0.501180	-0.216445	1.543182	-0.681070	-0.210189	1.537299	-0.318903	-0.112855	1.493893	-0.511989	-0.132216	1.026754	-0.395176	-0.144258	1.032148	-0.632464	-0.205525	1.103395	-0.343874	-0.216599	1.101407	-0.673089	-0.307495	1.098746	-0.459606	-0.312598	1.104215	-0.548523	-0.308636	1.104562	-0.500589	-0.221499	0.841195	-0.319562	-0.212350	0.782219	-0.317359	-0.147958	0.790035	-0.320189	-0.150063	0.851804	-0.324597	-0.208730	0.515277	-0.349833	-0.198562	0.505246	-0.470273	-0.284658	0.399055	-0.325114	-0.297095	0.359207	-0.333138	-0.237808	0.348159	-0.335818	-0.228971	0.386936	-0.330107	-0.368422	0.130498	-0.412790	-0.224314	0.053026	-0.346320	-0.168578	0.060072	-0.409318	-0.140957	0.049180	-0.402433	-0.240478	0.849965	-0.705539	-0.223619	0.791122	-0.713800	-0.160339	0.803544	-0.716552	-0.168182	0.862881	-0.709085	-0.226479	0.525212	-0.689493	-0.193244	0.518898	-0.570251	-0.300398	0.394304	-0.702214	-0.311983	0.356198	-0.694743	-0.250926	0.343076	-0.704660	-0.247828	0.386651	-0.711486	-0.372309	0.125746	-0.623763	-0.226384	0.055213	-0.702976	-0.168652	0.068631	-0.646454	-0.144398	0.054793	-0.655648	
627	3.1350	-0.260832	1.547637	-0.500956	-0.216147	1.540873	-0.681277	-0.209510	1.534928	-0.318372	-0.112590	1.491777	-0.511848	-0.132299	1.024999	-0.395210	-0.144237	1.030436	-0.632506	-0.205929	1.101269	-0.343837	-0.216708	1.099411	-0.673198	-0.307650	1.096495	-0.459825	-0.312548	1.101923	-0.548756	-0.308735	1.102240	-0.500806	-0.221086	0.839604	-0.319587	-0.211871	0.780640	-0.317344	-0.147480	0.788519	-0.320211	-0.149665	0.850283	-0.324662	-0.208147	0.513757	-0.349741	-0.198149	0.503771	-0.470272	-0.283699	0.397440	-0.325149	-0.296349	0.357576	-0.333144	-0.236968	0.346590	-0.335741	-0.228211	0.385332	-0.330025	-0.367253	0.128760	-0.412612	-0.222856	0.050827	-0.347080	-0.167186	0.058463	-0.410042	-0.139503	0.047399	-0.403454	-0.240158	0.848164	-0.705516	-0.223341	0.789290	-0.713631	-0.160053	0.801643	-0.716305	-0.167854	0.860998	-0.708969	-0.225878	0.523363	-0.689250	-0.194248	0.517309	-0.569526	-0.299001	0.392187	-0.702825	-0.310609	0.354045	-0.695417	-0.249380	0.341050	-0.704382	-0.246268	0.384604	-0.711240	-0.371498	0.124058	-0.624482	-0.224808	0.052194	-0.701244	-0.167742	0.066175	-0.644196	-0.143430	0.052265	-0.652951	
628	3.1400	-0.260478	1.545600	-0.500734	-0.215860	1.538314	-0.681482	-0.208809	1.532279	-0.317832	-0.112319	1.489403	-0.511712	-0.132394	1.023037	-0.395227	-0.144225	1.028483	-0.632563	-0.206262	1.098951	-0.343803	-0.216718	1.097211	-0.673313	-0.307837	1.093973	-0.460054	-0.312510	1.099327	-0.548988	-0.308863	1.099630	-0.501042	-0.220724	0.837778	-0.319649	-0.211433	0.778835	-0.317345	-0.147035	0.786784	-0.320180	-0.149312	0.848544	-0.324695	-0.207453	0.511975	-0.349626	-0.197686	0.502040	-0.470251	-0.282607	0.395577	-0.325070	-0.295495	0.355693	-0.333078	-0.236001	0.344767	-0.335678	-0.227303	0.383479	-0.329922	-0.366184	0.126894	-0.412402	-0.221574	0.048284	-0.347870	-0.165966	0.056411	-0.410812	-0.138245	0.045151	-0.404507	-0.239895	0.846109	-0.705454	-0.223109	0.787202	-0.713447	-0.159816	0.799496	-0.716082	-0.167578	0.858868	-0.708860	-0.225173	0.521286	-0.689043	-0.195164	0.515499	-0.568846	-0.297626	0.389948	-0.703436	-0.309275	0.351762	-0.696077	-0.247910	0.338847	-0.704130	-0.244744	0.382376	-0.711016	-0.370866	0.122264	-0.625185	-0.223580	0.048986	-0.699687	-0.167127	0.063397	-0.642118	-0.142808	0.049396	-0.650464	
629	3.1450	-0.260123	1.543298	-0.500516	-0.215585	1.535523	-0.681680	-0.208082	1.529373	-0.317289	-0.112067	1.486788	-0.511594	-0.132506	1.020871	-0.395218	-0.144224	1.026285	-0.632624	-0.206523	1.096449	-0.343770	-0.216629	1.094805	-0.673428	-0.308058	1.091189	-0.460285	-0.312495	1.096451	-0.549192	-0.309018	1.096745	-0.501287	-0.220406	0.835708	-0.319745	-0.211029	0.776787	-0.317358	-0.146639	0.784831	-0.320109	-0.149004	0.846579	-0.324698	-0.206629	0.509934	-0.349483	-0.197150	0.500053	-0.470203	-0.281390	0.393472	-0.324866	-0.294534	0.353548	-0.332932	-0.234945	0.342674	-0.335631	-0.226258	0.381389	-0.329795	-0.365285	0.124868	-0.412180	-0.220486	0.045568	-0.348547	-0.164813	0.054201	-0.411704	-0.137093	0.042653	-0.405657	-0.239671	0.843787	-0.705361	-0.222903	0.784854	-0.713253	-0.159608	0.797109	-0.715874	-0.167342	0.856484	-0.708747	-0.224371	0.518986	-0.688883	-0.195930	0.513460	-0.568247	-0.296345	0.387612	-0.704022	-0.308060	0.349388	-0.696690	-0.246594	0.336493	-0.703915	-0.243334	0.379990	-0.710822	-0.370475	0.120331	-0.625872	-0.222740	0.045741	-0.698462	-0.166828	0.060303	-0.640206	-0.142530	0.046201	-0.648180	
630	3.1500	-0.259768	1.540732	-0.500309	-0.215326	1.532502	-0.681863	-0.207373	1.526242	-0.316774	-0.111841	1.483975	-0.511494	-0.132639	1.018500	-0.395178	-0.144236	1.023846	-0.632677	-0.206723	1.093770	-0.343738	-0.216482	1.092187	-0.673549	-0.308341	1.088175	-0.460535	-0.312512	1.093325	-0.549367	-0.309205	1.093609	-0.501533	-0.220132	0.833387	-0.319863	-0.210656	0.774496	-0.317378	-0.146280	0.782652	-0.320002	-0.148743	0.844386	-0.324676	-0.205662	0.507629	-0.349314	-0.196512	0.497814	-0.470120	-0.280148	0.391123	-0.324568	-0.293497	0.351159	-0.332716	-0.233826	0.340320	-0.335596	-0.225119	0.379056	-0.329658	-0.364640	0.122658	-0.411964	-0.219569	0.043064	-0.348745	-0.163702	0.052102	-0.412705	-0.135888	0.040312	-0.407123	-0.239471	0.841180	-0.705241	-0.222702	0.782234	-0.713056	-0.159407	0.794473	-0.715677	-0.167127	0.853855	-0.708620	-0.223491	0.516478	-0.688777	-0.196506	0.511184	-0.567756	-0.295229	0.385187	-0.704562	-0.307028	0.346939	-0.697219	-0.245503	0.334005	-0.703742	-0.242118	0.377466	-0.710672	-0.370381	0.118196	-0.626536	-0.222286	0.042838	-0.698027	-0.166740	0.057263	-0.638213	-0.142453	0.043270	-0.645745	
631	3.1550	-0.259412	1.537906	-0.500115	-0.215086	1.529264	-0.682028	-0.206691	1.522900	-0.316300	-0.111657	1.480973	-0.511425	-0.132800	1.015929	-0.395106	-0.144264	1.021172	-0.632712	-0.206870	1.090921	-0.343704	-0.216295	1.089363	-0.673678	-0.308640	1.084910	-0.460763	-0.312568	1.089966	-0.549503	-0.309426	1.090239	-0.501773	-0.219899	0.830820	-0.319989	-0.210310	0.771957	-0.317399	-0.145953	0.780251	-0.319874	-0.148528	0.841963	-0.324639	-0.204548	0.505059	-0.349116	-0.195745	0.495324	-0.469991	-0.278945	0.388532	-0.324213	-0.292421	0.348554	-0.332431	-0.232697	0.337711	-0.335566	-0.223948	0.376456	-0.329513	-0.364348	0.120259	-0.411774	-0.218760	0.040925	-0.348491	-0.162649	0.050318	-0.413614	-0.134697	0.038314	-0.408491	-0.239284	0.838291	-0.705104	-0.222486	0.779343	-0.712859	-0.159196	0.791597	-0.715481	-0.166925	0.850979	-0.708476	-0.222552	0.513760	-0.688733	-0.196830	0.508670	-0.567402	-0.294333	0.382685	-0.705042	-0.306232	0.344420	-0.697647	-0.244689	0.331366	-0.703611	-0.241144	0.374801	-0.710570	-0.370630	0.115830	-0.627144	-0.221937	0.040447	-0.698221	-0.166820	0.054666	-0.636049	-0.142356	0.040844	-0.643191	
